<svg xmlns="http://www.w3.org/2000/svg" xmlns:xlink="http://www.w3.org/1999/xlink" xml:space="preserve" version="1.1" style="shape-rendering:geometricPrecision;text-rendering:geometricPrecision;image-rendering:optimizeQuality;" viewBox="0 0 847 1058.75" x="0px" y="0px" fill-rule="evenodd" clip-rule="evenodd"><defs><style type="text/css">
   
    .fil0 {fill:black}
   
  </style></defs><g><path class="fil0" d="M176 311c32,-18 77,-15 111,-7 -45,-36 -146,-108 -208,-69 1,25 75,69 97,76z"/><path class="fil0" d="M313 312c11,4 24,10 37,17l-18 -115c0,0 -153,-137 -192,-81 -28,41 -51,69 -59,89 75,-35 180,46 232,90z"/><path class="fil0" d="M179 449c0,-4 0,-4 0,-8 0,0 -7,-37 -16,-68 -44,4 -129,16 -124,61 3,40 -2,71 6,88 10,-47 95,-66 134,-73z"/><path class="fil0" d="M293 458c-24,6 -90,20 -109,0 -32,6 -132,27 -130,74 37,21 205,-47 239,-74z"/><path class="fil0" d="M397 319c16,0 32,0 48,0 15,0 29,7 38,17 1,-1 27,-149 31,-166 13,-53 12,-79 -7,-79 -56,0 -111,0 -167,0 -19,0 -20,26 -8,79 11,43 25,129 30,162 9,-8 21,-13 35,-13z"/><path class="fil0" d="M189 448c12,24 108,-1 127,-6 10,-5 19,-12 29,-17 -26,-1 -152,-5 -156,23z"/><path class="fil0" d="M240 664c10,32 23,61 40,91 4,-196 74,-277 110,-306 -17,-2 -34,-17 -36,-18 -3,-1 -29,17 -34,21 -144,95 -144,245 -138,304 11,-36 29,-68 58,-92z"/><path class="fil0" d="M354 342c-46,-25 -113,-46 -164,-26 -36,14 -24,27 -16,56 5,20 9,40 13,59 37,-21 119,-18 161,-16 0,-3 -1,-7 -1,-10l0 -42c0,-8 3,-14 7,-21z"/><path class="fil0" d="M534 312c51,-44 157,-125 231,-90 -7,-20 -30,-48 -58,-89 -39,-56 -193,81 -193,81l-17 115c13,-7 25,-13 37,-17z"/><path class="fil0" d="M768 235c-63,-39 -163,32 -209,69 35,-8 80,-11 112,7 21,-7 96,-51 97,-76z"/><path class="fil0" d="M802 522c7,-17 2,-48 6,-88 4,-45 -80,-57 -125,-61 -8,31 -15,68 -15,68 -1,4 0,4 0,8 39,7 124,26 134,73z"/><path class="fil0" d="M793 532c2,-47 -99,-68 -130,-74 -20,20 -85,6 -109,0 1,2 3,3 5,4 34,22 194,92 234,70z"/><path class="fil0" d="M502 425c10,5 19,11 29,17 3,1 7,2 10,3 12,3 121,26 116,2 -5,-27 -132,-23 -155,-22z"/><path class="fil0" d="M567 755c17,-30 30,-59 40,-91 28,24 46,56 58,92 14,-143 -51,-263 -179,-328 -6,11 -18,18 -30,20 35,28 107,109 111,307z"/><path class="fil0" d="M673 372c8,-30 20,-42 -17,-56 -51,-21 -120,2 -167,29 3,5 5,12 5,18l0 42c0,2 -1,8 -1,10 48,-2 132,-3 166,16 4,-19 9,-39 14,-59z"/><path class="fil0" d="M445 439c18,0 39,-13 39,-34l0 -42c0,-20 -21,-33 -40,-33 -15,0 -31,0 -47,0 -19,0 -39,13 -39,33l0 42c0,21 20,34 39,34 16,0 32,0 48,0z"/></g><text x="0" y="862" fill="#000000" font-size="5px" font-weight="bold" font-family="'Helvetica Neue', Helvetica, Arial-Unicode, Arial, Sans-serif">Created by Karla Design</text><text x="0" y="867" fill="#000000" font-size="5px" font-weight="bold" font-family="'Helvetica Neue', Helvetica, Arial-Unicode, Arial, Sans-serif">from the Noun Project</text></svg>